#!OML:ASF H:\Dans Jumps\Project 1\Capture day 1\Session 1\subject.ASF
:FULLY-SPECIFIED
:DEGREES
707
root 0.404345 17.7442 6.48722 6.99655 -1.37063 -1.45362
lowerback -4.23396 0.271979 0.22159
upperback 1.20293 0.307335 1.23512
thorax 3.60809 0.143617 1.17061
lowerneck -10.1609 -0.496729 -2.21945
upperneck 14.1348 -0.475648 1.06736
head 5.95883 -0.267366 0.663436
rclavicle -5.54112e-015 1.27222e-014
rhumerus -28.0163 -14.3881 -80.2049
rradius 26.774
rwrist 31.3301
rhand -19.6953 -26.1782
rfingers 7.12502
rthumb 6.63398 -56.0543
lclavicle -5.54112e-015 1.27222e-014
lhumerus -27.0882 0.475144 87.6663
lradius 21.5424
lwrist 7.61559
lhand -25.6741 -5.53142
lfingers 7.12502
lthumb 0.860497 24.4466
rfemur -12.7077 -2.98234 20.1516
rtibia 19.3478
rfoot -12.3426 2.87452
rtoes 17.5346
lfemur -10.2163 6.54186 -17.6871
ltibia 15.9232
lfoot -8.49708 8.14801
ltoes 3.42977
708
root 0.406312 17.744 6.48788 6.98602 -1.3766 -1.44784
lowerback -4.25144 0.274396 0.212227
upperback 1.21001 0.310969 1.23133
thorax 3.62519 0.145203 1.17241
lowerneck -10.1423 -0.506443 -2.23784
upperneck 14.1051 -0.489399 1.0883
head 5.94658 -0.273349 0.671933
rclavicle 3.35449e-015 -5.56597e-015
rhumerus -28.0111 -14.4113 -80.2087
rradius 26.7707
rwrist 31.33
rhand -19.7027 -26.1664
rfingers 7.12502
rthumb 6.62683 -56.0427
lclavicle 3.35449e-015 -5.56597e-015
lhumerus -27.0962 0.425142 87.7092
lradius 21.5343
lwrist 7.62952
lhand -25.6654 -5.53455
lfingers 7.12502
lthumb 0.868906 24.4434
rfemur -12.6976 -2.98504 20.137
rtibia 19.3533
rfoot -12.3463 2.87905
rtoes 17.512
lfemur -10.198 6.5502 -17.6999
ltibia 15.917
lfoot -8.4874 8.1431
ltoes 3.35229
709
root 0.40816 17.7438 6.48851 6.97714 -1.38362 -1.44964
lowerback -4.26994 0.277312 0.209536
upperback 1.21648 0.314818 1.2297
thorax 3.64224 0.147019 1.1727
lowerneck -10.1329 -0.513574 -2.2465
upperneck 14.0796 -0.49955 1.09969
head 5.93715 -0.277792 0.6761
rclavicle 6.83322e-015 9.74045e-015
rhumerus -28.008 -14.4385 -80.2115
rradius 26.7665
rwrist 31.3324
rhand -19.7055 -26.1546
rfingers 7.12502
rthumb 6.62408 -56.031
lclavicle 6.83322e-015 9.74045e-015
lhumerus -27.1051 0.383048 87.7476
lradius 21.5231
lwrist 7.63668
lhand -25.6644 -5.54055
lfingers 7.12502
lthumb 0.86984 24.4374
rfemur -12.6869 -2.97817 20.1313
rtibia 19.3535
rfoot -12.3455 2.87633
rtoes 17.4941
lfemur -10.1847 6.55686 -17.7035
ltibia 15.9171
lfoot -8.47354 8.14109
ltoes 3.24557
710
root 0.409945 17.7436 6.4891 6.96789 -1.39219 -1.4545
lowerback -4.28803 0.280403 0.209988
upperback 1.22352 0.318721 1.22805
thorax 3.65968 0.14893 1.17122
lowerneck -10.1238 -0.519633 -2.24976
upperneck 14.0511 -0.508174 1.10501
head 5.92678 -0.28166 0.677584
rclavicle 2.95692e-015 1.70955e-014
rhumerus -28.0049 -14.4683 -80.2157
rradius 26.7586
rwrist 31.3371
rhand -19.7072 -26.1459
rfingers 7.12502
rthumb 6.62246 -56.0223
lclavicle 2.95692e-015 1.70955e-014
lhumerus -27.1127 0.349552 87.7794
lradius 21.509
lwrist 7.63832
lhand -25.6661 -5.53462
lfingers 7.12502
lthumb 0.868243 24.4434
rfemur -12.674 -2.96559 20.1292
rtibia 19.3498
rfoot -12.344 2.86968
rtoes 17.4795
lfemur -10.1733 6.56242 -17.7032
ltibia 15.9223
lfoot -8.46031 8.14257
ltoes 3.14048
711
root 0.411666 17.7434 6.4896 6.95859 -1.40221 -1.46408
lowerback -4.30309 0.283495 0.214333
upperback 1.22931 0.322402 1.22763
thorax 3.67413 0.150815 1.16878
lowerneck -10.1194 -0.523925 -2.24713
upperneck 14.0264 -0.514259 1.10382
head 5.91836 -0.284484 0.676247
rclavicle 1.93815e-015 2.38542e-015
rhumerus -28.0046 -14.4997 -80.2199
rradius 26.7496
rwrist 31.3452
rhand -19.7034 -26.1413
rfingers 7.12502
rthumb 6.62617 -56.0176
lclavicle 1.93815e-015 2.38542e-015
lhumerus -27.1233 0.321236 87.8067
lradius 21.4934
lwrist 7.63735
lhand -25.6692 -5.52804
lfingers 7.12502
lthumb 0.86524 24.45
rfemur -12.6599 -2.94704 20.1325
rtibia 19.3438
rfoot -12.3414 2.85837
rtoes 17.464
lfemur -10.1634 6.56671 -17.6975
ltibia 15.9303
lfoot -8.44927 8.14725
ltoes 3.04196
712
root 0.413371 17.7433 6.49002 6.95048 -1.41294 -1.47165
lowerback -4.3191 0.285866 0.21587
upperback 1.23514 0.325281 1.22694
thorax 3.68915 0.152238 1.16758
lowerneck -10.1154 -0.527048 -2.23961
upperneck 14.0008 -0.51838 1.09509
head 5.90962 -0.286667 0.671883
rclavicle -1.2921e-015 1.59028e-014
rhumerus -28.0046 -14.531 -80.2248
rradius 26.7404
rwrist 31.3564
rhand -19.6929 -26.1453
rfingers 7.12502
rthumb 6.63627 -56.0214
lclavicle -1.2921e-015 1.59028e-014
lhumerus -27.1322 0.299271 87.8294
lradius 21.4737
lwrist 7.63116
lhand -25.664 -5.50575
lfingers 7.12502
lthumb 0.870293 24.4722
rfemur -12.6473 -2.92655 20.1335
rtibia 19.3379
rfoot -12.3397 2.84533
rtoes 17.4484
lfemur -10.1555 6.56975 -17.6944
ltibia 15.939
lfoot -8.44189 8.15473
ltoes 2.9722
